<svg width="346" height="182" viewBox="0 0 346 182" fill="none" xmlns="http://www.w3.org/2000/svg">
<path d="M1 131C1 125.477 5.47715 121 11 121H51C56.5228 121 61 125.477 61 131V171C61 176.523 56.5228 181 51 181H11C5.47715 181 1 176.523 1 171V131Z" fill="url(#paint0_linear_36_800)"/>
<path d="M11 121V121.5H51V121V120.5H11V121ZM61 131H60.5V171H61H61.5V131H61ZM51 181V180.5H11V181V181.5H51V181ZM1 171H1.5V131H1H0.5V171H1ZM11 181V180.5C5.7533 180.5 1.5 176.247 1.5 171H1H0.5C0.5 176.799 5.20101 181.5 11 181.5V181ZM61 171H60.5C60.5 176.247 56.2467 180.5 51 180.5V181V181.5C56.799 181.5 61.5 176.799 61.5 171H61ZM51 121V121.5C56.2467 121.5 60.5 125.753 60.5 131H61H61.5C61.5 125.201 56.799 120.5 51 120.5V121ZM11 121V120.5C5.20101 120.5 0.5 125.201 0.5 131H1H1.5C1.5 125.753 5.7533 121.5 11 121.5V121Z" fill="url(#paint1_linear_36_800)" fill-opacity="0.8"/>
<path d="M11 121V121.5H51V121V120.5H11V121ZM61 131H60.5V171H61H61.5V131H61ZM51 181V180.5H11V181V181.5H51V181ZM1 171H1.5V131H1H0.5V171H1ZM11 181V180.5C5.7533 180.5 1.5 176.247 1.5 171H1H0.5C0.5 176.799 5.20101 181.5 11 181.5V181ZM61 171H60.5C60.5 176.247 56.2467 180.5 51 180.5V181V181.5C56.799 181.5 61.5 176.799 61.5 171H61ZM51 121V121.5C56.2467 121.5 60.5 125.753 60.5 131H61H61.5C61.5 125.201 56.799 120.5 51 120.5V121ZM11 121V120.5C5.20101 120.5 0.5 125.201 0.5 131H1H1.5C1.5 125.753 5.7533 121.5 11 121.5V121Z" fill="url(#paint2_linear_36_800)" fill-opacity="0.8"/>
<path d="M11 121V121.5H51V121V120.5H11V121ZM61 131H60.5V171H61H61.5V131H61ZM51 181V180.5H11V181V181.5H51V181ZM1 171H1.5V131H1H0.5V171H1ZM11 181V180.5C5.7533 180.5 1.5 176.247 1.5 171H1H0.5C0.5 176.799 5.20101 181.5 11 181.5V181ZM61 171H60.5C60.5 176.247 56.2467 180.5 51 180.5V181V181.5C56.799 181.5 61.5 176.799 61.5 171H61ZM51 121V121.5C56.2467 121.5 60.5 125.753 60.5 131H61H61.5C61.5 125.201 56.799 120.5 51 120.5V121ZM11 121V120.5C5.20101 120.5 0.5 125.201 0.5 131H1H1.5C1.5 125.753 5.7533 121.5 11 121.5V121Z" fill="url(#paint3_linear_36_800)" fill-opacity="0.8"/>
<path d="M11 121V121.5H51V121V120.5H11V121ZM61 131H60.5V171H61H61.5V131H61ZM51 181V180.5H11V181V181.5H51V181ZM1 171H1.5V131H1H0.5V171H1ZM11 181V180.5C5.7533 180.5 1.5 176.247 1.5 171H1H0.5C0.5 176.799 5.20101 181.5 11 181.5V181ZM61 171H60.5C60.5 176.247 56.2467 180.5 51 180.5V181V181.5C56.799 181.5 61.5 176.799 61.5 171H61ZM51 121V121.5C56.2467 121.5 60.5 125.753 60.5 131H61H61.5C61.5 125.201 56.799 120.5 51 120.5V121ZM11 121V120.5C5.20101 120.5 0.5 125.201 0.5 131H1H1.5C1.5 125.753 5.7533 121.5 11 121.5V121Z" fill="url(#paint4_linear_36_800)" fill-opacity="0.8"/>
<g filter="url(#filter0_d_36_800)">
<path d="M16.6562 137.031V164.969H44.5938V137.031H16.6562ZM31.8867 158.795C31.8867 161.544 30.2645 162.806 27.9214 162.806C25.8486 162.806 24.632 161.724 24.0011 160.373L26.164 159.021C26.5245 159.787 26.93 160.373 27.8763 160.373C28.7776 160.373 29.2731 160.057 29.2731 158.705V149.873H31.8867V158.795ZM38.1051 162.806C35.6718 162.806 34.0947 161.589 33.2836 160.147L35.4465 158.886C36.0323 159.787 36.7983 160.463 38.0599 160.463C39.1414 160.463 39.8174 159.967 39.8174 159.111C39.8174 158.21 39.1414 157.894 37.9248 157.353L37.294 157.083C35.4014 156.317 34.1397 155.236 34.1397 153.073C34.1397 151.09 35.5816 149.648 37.9699 149.648C39.6372 149.648 40.8087 150.234 41.6648 151.766L39.6372 153.118C39.1864 152.352 38.7359 151.991 37.9248 151.991C37.1588 151.991 36.6631 152.487 36.6631 153.118C36.6631 153.884 37.1588 154.199 38.2403 154.695L38.8711 154.965C41.0791 155.912 42.3858 156.858 42.3858 159.111C42.4309 161.499 40.5833 162.806 38.1051 162.806Z" fill="#CA6263"/>
</g>
<path d="M1 11C1 5.47715 5.47715 1 11 1H51C56.5228 1 61 5.47715 61 11V51C61 56.5228 56.5228 61 51 61H11C5.47715 61 1 56.5228 1 51V11Z" fill="url(#paint5_linear_36_800)"/>
<path d="M11 1V1.5H51V1V0.5H11V1ZM61 11H60.5V51H61H61.5V11H61ZM51 61V60.5H11V61V61.5H51V61ZM1 51H1.5V11H1H0.5V51H1ZM11 61V60.5C5.7533 60.5 1.5 56.2467 1.5 51H1H0.5C0.5 56.799 5.20101 61.5 11 61.5V61ZM61 51H60.5C60.5 56.2467 56.2467 60.5 51 60.5V61V61.5C56.799 61.5 61.5 56.799 61.5 51H61ZM51 1V1.5C56.2467 1.5 60.5 5.7533 60.5 11H61H61.5C61.5 5.20101 56.799 0.5 51 0.5V1ZM11 1V0.5C5.20101 0.5 0.5 5.20101 0.5 11H1H1.5C1.5 5.7533 5.7533 1.5 11 1.5V1Z" fill="url(#paint6_linear_36_800)" fill-opacity="0.8"/>
<path d="M11 1V1.5H51V1V0.5H11V1ZM61 11H60.5V51H61H61.5V11H61ZM51 61V60.5H11V61V61.5H51V61ZM1 51H1.5V11H1H0.5V51H1ZM11 61V60.5C5.7533 60.5 1.5 56.2467 1.5 51H1H0.5C0.5 56.799 5.20101 61.5 11 61.5V61ZM61 51H60.5C60.5 56.2467 56.2467 60.5 51 60.5V61V61.5C56.799 61.5 61.5 56.799 61.5 51H61ZM51 1V1.5C56.2467 1.5 60.5 5.7533 60.5 11H61H61.5C61.5 5.20101 56.799 0.5 51 0.5V1ZM11 1V0.5C5.20101 0.5 0.5 5.20101 0.5 11H1H1.5C1.5 5.7533 5.7533 1.5 11 1.5V1Z" fill="url(#paint7_linear_36_800)" fill-opacity="0.8"/>
<path d="M11 1V1.5H51V1V0.5H11V1ZM61 11H60.5V51H61H61.5V11H61ZM51 61V60.5H11V61V61.5H51V61ZM1 51H1.5V11H1H0.5V51H1ZM11 61V60.5C5.7533 60.5 1.5 56.2467 1.5 51H1H0.5C0.5 56.799 5.20101 61.5 11 61.5V61ZM61 51H60.5C60.5 56.2467 56.2467 60.5 51 60.5V61V61.5C56.799 61.5 61.5 56.799 61.5 51H61ZM51 1V1.5C56.2467 1.5 60.5 5.7533 60.5 11H61H61.5C61.5 5.20101 56.799 0.5 51 0.5V1ZM11 1V0.5C5.20101 0.5 0.5 5.20101 0.5 11H1H1.5C1.5 5.7533 5.7533 1.5 11 1.5V1Z" fill="url(#paint8_linear_36_800)" fill-opacity="0.8"/>
<path d="M11 1V1.5H51V1V0.5H11V1ZM61 11H60.5V51H61H61.5V11H61ZM51 61V60.5H11V61V61.5H51V61ZM1 51H1.5V11H1H0.5V51H1ZM11 61V60.5C5.7533 60.5 1.5 56.2467 1.5 51H1H0.5C0.5 56.799 5.20101 61.5 11 61.5V61ZM61 51H60.5C60.5 56.2467 56.2467 60.5 51 60.5V61V61.5C56.799 61.5 61.5 56.799 61.5 51H61ZM51 1V1.5C56.2467 1.5 60.5 5.7533 60.5 11H61H61.5C61.5 5.20101 56.799 0.5 51 0.5V1ZM11 1V0.5C5.20101 0.5 0.5 5.20101 0.5 11H1H1.5C1.5 5.7533 5.7533 1.5 11 1.5V1Z" fill="url(#paint9_linear_36_800)" fill-opacity="0.8"/>
<path d="M15.1042 30.625C15.1042 22.053 22.0531 15.1041 30.625 15.1041C39.1968 15.1041 46.1458 22.053 46.1458 30.625C46.1458 31.7659 45.2025 32.6014 44.1463 32.6014H38.4068C35.8318 32.6014 33.7444 34.6889 33.7444 37.264C33.7444 38.4981 34.2336 39.6818 35.1049 40.5558C35.942 41.3953 36.2515 42.5505 36.021 43.5914C35.7844 44.6589 34.9763 45.5829 33.7183 45.8372C32.7177 46.0398 31.6832 46.1458 30.625 46.1458C22.0531 46.1458 15.1042 39.1968 15.1042 30.625ZM28.4091 24.3196C29.4805 24.3196 30.3492 23.451 30.3492 22.3795C30.3492 21.308 29.4805 20.4394 28.4091 20.4394C27.3376 20.4394 26.4689 21.308 26.4689 22.3795C26.4689 23.451 27.3376 24.3196 28.4091 24.3196ZM36.6727 26.5098C37.7441 26.5098 38.6128 25.6412 38.6128 24.5697C38.6128 23.4982 37.7441 22.6296 36.6727 22.6296C35.6011 22.6296 34.7326 23.4982 34.7326 24.5697C34.7326 25.6412 35.6011 26.5098 36.6727 26.5098ZM24.3166 28.4499C24.3166 27.3784 23.448 26.5098 22.3765 26.5098C21.305 26.5098 20.4364 27.3784 20.4364 28.4499C20.4364 29.5214 21.305 30.39 22.3765 30.39C23.448 30.39 24.3166 29.5214 24.3166 28.4499ZM24.5955 38.6121C25.667 38.6121 26.5356 37.7434 26.5356 36.672C26.5356 35.6005 25.667 34.7319 24.5955 34.7319C23.524 34.7319 22.6554 35.6005 22.6554 36.672C22.6554 37.7434 23.524 38.6121 24.5955 38.6121Z" fill="#CA6263"/>
<rect x="113" y="31" width="120" height="120" rx="20" fill="url(#paint10_linear_36_800)" fill-opacity="0.1"/>
<rect x="113.5" y="31.5" width="119" height="119" rx="19.5" stroke="#FAFAFA" stroke-opacity="0.8"/>
<path d="M133 61C133 55.4772 137.477 51 143 51H203C208.523 51 213 55.4772 213 61V121C213 126.523 208.523 131 203 131H143C137.477 131 133 126.523 133 121V61Z" fill="url(#paint11_linear_36_800)"/>
<path d="M143 51V51.5H203V51V50.5H143V51ZM213 61H212.5V121H213H213.5V61H213ZM203 131V130.5H143V131V131.5H203V131ZM133 121H133.5V61H133H132.5V121H133ZM143 131V130.5C137.753 130.5 133.5 126.247 133.5 121H133H132.5C132.5 126.799 137.201 131.5 143 131.5V131ZM213 121H212.5C212.5 126.247 208.247 130.5 203 130.5V131V131.5C208.799 131.5 213.5 126.799 213.5 121H213ZM203 51V51.5C208.247 51.5 212.5 55.7533 212.5 61H213H213.5C213.5 55.201 208.799 50.5 203 50.5V51ZM143 51V50.5C137.201 50.5 132.5 55.201 132.5 61H133H133.5C133.5 55.7533 137.753 51.5 143 51.5V51Z" fill="url(#paint12_linear_36_800)" fill-opacity="0.8"/>
<path d="M143 51V51.5H203V51V50.5H143V51ZM213 61H212.5V121H213H213.5V61H213ZM203 131V130.5H143V131V131.5H203V131ZM133 121H133.5V61H133H132.5V121H133ZM143 131V130.5C137.753 130.5 133.5 126.247 133.5 121H133H132.5C132.5 126.799 137.201 131.5 143 131.5V131ZM213 121H212.5C212.5 126.247 208.247 130.5 203 130.5V131V131.5C208.799 131.5 213.5 126.799 213.5 121H213ZM203 51V51.5C208.247 51.5 212.5 55.7533 212.5 61H213H213.5C213.5 55.201 208.799 50.5 203 50.5V51ZM143 51V50.5C137.201 50.5 132.5 55.201 132.5 61H133H133.5C133.5 55.7533 137.753 51.5 143 51.5V51Z" fill="url(#paint13_linear_36_800)" fill-opacity="0.8"/>
<path d="M143 51V51.5H203V51V50.5H143V51ZM213 61H212.5V121H213H213.5V61H213ZM203 131V130.5H143V131V131.5H203V131ZM133 121H133.5V61H133H132.5V121H133ZM143 131V130.5C137.753 130.5 133.5 126.247 133.5 121H133H132.5C132.5 126.799 137.201 131.5 143 131.5V131ZM213 121H212.5C212.5 126.247 208.247 130.5 203 130.5V131V131.5C208.799 131.5 213.5 126.799 213.5 121H213ZM203 51V51.5C208.247 51.5 212.5 55.7533 212.5 61H213H213.5C213.5 55.201 208.799 50.5 203 50.5V51ZM143 51V50.5C137.201 50.5 132.5 55.201 132.5 61H133H133.5C133.5 55.7533 137.753 51.5 143 51.5V51Z" fill="url(#paint14_linear_36_800)" fill-opacity="0.8"/>
<path d="M143 51V51.5H203V51V50.5H143V51ZM213 61H212.5V121H213H213.5V61H213ZM203 131V130.5H143V131V131.5H203V131ZM133 121H133.5V61H133H132.5V121H133ZM143 131V130.5C137.753 130.5 133.5 126.247 133.5 121H133H132.5C132.5 126.799 137.201 131.5 143 131.5V131ZM213 121H212.5C212.5 126.247 208.247 130.5 203 130.5V131V131.5C208.799 131.5 213.5 126.799 213.5 121H213ZM203 51V51.5C208.247 51.5 212.5 55.7533 212.5 61H213H213.5C213.5 55.201 208.799 50.5 203 50.5V51ZM143 51V50.5C137.201 50.5 132.5 55.201 132.5 61H133H133.5C133.5 55.7533 137.753 51.5 143 51.5V51Z" fill="url(#paint15_linear_36_800)" fill-opacity="0.8"/>
<g filter="url(#filter1_d_36_800)">
<path d="M179.14 72.0602C179.355 71.083 178.743 70.1148 177.773 69.8977C176.803 69.6805 175.841 70.2966 175.625 71.2738L167.092 109.94C166.876 110.918 167.488 111.886 168.459 112.103C169.429 112.32 170.391 111.704 170.606 110.727L179.14 72.0602Z" fill="#CA6263"/>
<path d="M161.79 80.0514C162.493 80.7592 162.493 81.9069 161.79 82.6147L153.463 91.0007L161.79 99.3858C162.493 100.093 162.493 101.241 161.79 101.949C161.087 102.657 159.947 102.657 159.244 101.949L149.644 92.2823C148.941 91.5744 148.941 90.427 149.644 89.7192L159.244 80.0516C159.947 79.3437 161.087 79.3436 161.79 80.0514Z" fill="#CA6263"/>
<path d="M184.444 80.0514C183.741 80.7592 183.741 81.9069 184.444 82.6147L192.772 91.0007L184.444 99.3858C183.741 100.093 183.741 101.241 184.444 101.949C185.147 102.657 186.287 102.657 186.99 101.949L196.59 92.2823C197.293 91.5744 197.293 90.427 196.59 89.7192L186.99 80.0516C186.287 79.3437 185.147 79.3436 184.444 80.0514Z" fill="#CA6263"/>
</g>
<path d="M285 131C285 125.477 289.477 121 295 121H335C340.523 121 345 125.477 345 131V171C345 176.523 340.523 181 335 181H295C289.477 181 285 176.523 285 171V131Z" fill="url(#paint16_linear_36_800)"/>
<path d="M295 121V121.5H335V121V120.5H295V121ZM345 131H344.5V171H345H345.5V131H345ZM335 181V180.5H295V181V181.5H335V181ZM285 171H285.5V131H285H284.5V171H285ZM295 181V180.5C289.753 180.5 285.5 176.247 285.5 171H285H284.5C284.5 176.799 289.201 181.5 295 181.5V181ZM345 171H344.5C344.5 176.247 340.247 180.5 335 180.5V181V181.5C340.799 181.5 345.5 176.799 345.5 171H345ZM335 121V121.5C340.247 121.5 344.5 125.753 344.5 131H345H345.5C345.5 125.201 340.799 120.5 335 120.5V121ZM295 121V120.5C289.201 120.5 284.5 125.201 284.5 131H285H285.5C285.5 125.753 289.753 121.5 295 121.5V121Z" fill="url(#paint17_linear_36_800)" fill-opacity="0.8"/>
<path d="M295 121V121.5H335V121V120.5H295V121ZM345 131H344.5V171H345H345.5V131H345ZM335 181V180.5H295V181V181.5H335V181ZM285 171H285.5V131H285H284.5V171H285ZM295 181V180.5C289.753 180.5 285.5 176.247 285.5 171H285H284.5C284.5 176.799 289.201 181.5 295 181.5V181ZM345 171H344.5C344.5 176.247 340.247 180.5 335 180.5V181V181.5C340.799 181.5 345.5 176.799 345.5 171H345ZM335 121V121.5C340.247 121.5 344.5 125.753 344.5 131H345H345.5C345.5 125.201 340.799 120.5 335 120.5V121ZM295 121V120.5C289.201 120.5 284.5 125.201 284.5 131H285H285.5C285.5 125.753 289.753 121.5 295 121.5V121Z" fill="url(#paint18_linear_36_800)" fill-opacity="0.8"/>
<path d="M295 121V121.5H335V121V120.5H295V121ZM345 131H344.5V171H345H345.5V131H345ZM335 181V180.5H295V181V181.5H335V181ZM285 171H285.5V131H285H284.5V171H285ZM295 181V180.5C289.753 180.5 285.5 176.247 285.5 171H285H284.5C284.5 176.799 289.201 181.5 295 181.5V181ZM345 171H344.5C344.5 176.247 340.247 180.5 335 180.5V181V181.5C340.799 181.5 345.5 176.799 345.5 171H345ZM335 121V121.5C340.247 121.5 344.5 125.753 344.5 131H345H345.5C345.5 125.201 340.799 120.5 335 120.5V121ZM295 121V120.5C289.201 120.5 284.5 125.201 284.5 131H285H285.5C285.5 125.753 289.753 121.5 295 121.5V121Z" fill="url(#paint19_linear_36_800)" fill-opacity="0.8"/>
<path d="M295 121V121.5H335V121V120.5H295V121ZM345 131H344.5V171H345H345.5V131H345ZM335 181V180.5H295V181V181.5H335V181ZM285 171H285.5V131H285H284.5V171H285ZM295 181V180.5C289.753 180.5 285.5 176.247 285.5 171H285H284.5C284.5 176.799 289.201 181.5 295 181.5V181ZM345 171H344.5C344.5 176.247 340.247 180.5 335 180.5V181V181.5C340.799 181.5 345.5 176.799 345.5 171H345ZM335 121V121.5C340.247 121.5 344.5 125.753 344.5 131H345H345.5C345.5 125.201 340.799 120.5 335 120.5V121ZM295 121V120.5C289.201 120.5 284.5 125.201 284.5 131H285H285.5C285.5 125.753 289.753 121.5 295 121.5V121Z" fill="url(#paint20_linear_36_800)" fill-opacity="0.8"/>
<path d="M332.945 146.179C332.279 143.638 331.069 141.642 328.529 141.642H325.141V145.634C325.141 148.719 322.479 151.321 319.636 151.321H310.623C308.142 151.321 306.207 153.438 306.207 155.918V164.448C306.207 166.807 308.324 168.259 310.623 169.045C313.405 169.892 316.127 170.073 319.576 169.045C321.814 168.38 323.992 167.109 323.992 164.448V161.06H315.099V159.971H328.529C331.069 159.971 332.098 158.156 332.945 155.434C333.852 152.47 333.852 149.748 332.945 146.179ZM320.12 163.117C321.027 163.117 321.814 163.903 321.814 164.81C321.814 165.718 321.027 166.504 320.12 166.504C319.213 166.565 318.426 165.718 318.426 164.81C318.366 163.903 319.152 163.117 320.12 163.117ZM310.199 150.171H319.152C321.632 150.171 323.568 148.114 323.568 145.574V137.165C323.568 134.806 321.511 132.991 319.152 132.568C316.188 132.144 312.921 132.144 310.199 132.568C306.388 133.233 305.783 134.624 305.783 137.165V140.553H314.736V141.642H302.516C299.976 141.642 297.677 143.275 297.012 146.179C296.165 149.566 296.165 151.683 297.012 155.192C297.677 157.854 299.129 159.729 301.791 159.729H304.694V155.676C304.634 152.712 307.235 150.171 310.199 150.171ZM309.655 138.254C308.747 138.254 307.961 137.468 307.961 136.56C307.961 135.653 308.747 134.866 309.655 134.866C310.562 134.866 311.348 135.653 311.348 136.56C311.348 137.468 310.562 138.254 309.655 138.254Z" fill="#CA6263"/>
<path d="M285 131C285 125.477 289.477 121 295 121H335C340.523 121 345 125.477 345 131V171C345 176.523 340.523 181 335 181H295C289.477 181 285 176.523 285 171V131Z" fill="url(#paint21_linear_36_800)"/>
<path d="M295 121V121.5H335V121V120.5H295V121ZM345 131H344.5V171H345H345.5V131H345ZM335 181V180.5H295V181V181.5H335V181ZM285 171H285.5V131H285H284.5V171H285ZM295 181V180.5C289.753 180.5 285.5 176.247 285.5 171H285H284.5C284.5 176.799 289.201 181.5 295 181.5V181ZM345 171H344.5C344.5 176.247 340.247 180.5 335 180.5V181V181.5C340.799 181.5 345.5 176.799 345.5 171H345ZM335 121V121.5C340.247 121.5 344.5 125.753 344.5 131H345H345.5C345.5 125.201 340.799 120.5 335 120.5V121ZM295 121V120.5C289.201 120.5 284.5 125.201 284.5 131H285H285.5C285.5 125.753 289.753 121.5 295 121.5V121Z" fill="url(#paint22_linear_36_800)" fill-opacity="0.8"/>
<path d="M295 121V121.5H335V121V120.5H295V121ZM345 131H344.5V171H345H345.5V131H345ZM335 181V180.5H295V181V181.5H335V181ZM285 171H285.5V131H285H284.5V171H285ZM295 181V180.5C289.753 180.5 285.5 176.247 285.5 171H285H284.5C284.5 176.799 289.201 181.5 295 181.5V181ZM345 171H344.5C344.5 176.247 340.247 180.5 335 180.5V181V181.5C340.799 181.5 345.5 176.799 345.5 171H345ZM335 121V121.5C340.247 121.5 344.5 125.753 344.5 131H345H345.5C345.5 125.201 340.799 120.5 335 120.5V121ZM295 121V120.5C289.201 120.5 284.5 125.201 284.5 131H285H285.5C285.5 125.753 289.753 121.5 295 121.5V121Z" fill="url(#paint23_linear_36_800)" fill-opacity="0.8"/>
<path d="M295 121V121.5H335V121V120.5H295V121ZM345 131H344.5V171H345H345.5V131H345ZM335 181V180.5H295V181V181.5H335V181ZM285 171H285.5V131H285H284.5V171H285ZM295 181V180.5C289.753 180.5 285.5 176.247 285.5 171H285H284.5C284.5 176.799 289.201 181.5 295 181.5V181ZM345 171H344.5C344.5 176.247 340.247 180.5 335 180.5V181V181.5C340.799 181.5 345.5 176.799 345.5 171H345ZM335 121V121.5C340.247 121.5 344.5 125.753 344.5 131H345H345.5C345.5 125.201 340.799 120.5 335 120.5V121ZM295 121V120.5C289.201 120.5 284.5 125.201 284.5 131H285H285.5C285.5 125.753 289.753 121.5 295 121.5V121Z" fill="url(#paint24_linear_36_800)" fill-opacity="0.8"/>
<path d="M295 121V121.5H335V121V120.5H295V121ZM345 131H344.5V171H345H345.5V131H345ZM335 181V180.5H295V181V181.5H335V181ZM285 171H285.5V131H285H284.5V171H285ZM295 181V180.5C289.753 180.5 285.5 176.247 285.5 171H285H284.5C284.5 176.799 289.201 181.5 295 181.5V181ZM345 171H344.5C344.5 176.247 340.247 180.5 335 180.5V181V181.5C340.799 181.5 345.5 176.799 345.5 171H345ZM335 121V121.5C340.247 121.5 344.5 125.753 344.5 131H345H345.5C345.5 125.201 340.799 120.5 335 120.5V121ZM295 121V120.5C289.201 120.5 284.5 125.201 284.5 131H285H285.5C285.5 125.753 289.753 121.5 295 121.5V121Z" fill="url(#paint25_linear_36_800)" fill-opacity="0.8"/>
<path d="M332.945 146.179C332.279 143.638 331.069 141.642 328.529 141.642H325.141V145.634C325.141 148.719 322.479 151.321 319.636 151.321H310.623C308.142 151.321 306.207 153.438 306.207 155.918V164.448C306.207 166.807 308.324 168.259 310.623 169.045C313.405 169.892 316.127 170.073 319.576 169.045C321.814 168.38 323.992 167.109 323.992 164.448V161.06H315.099V159.971H328.529C331.069 159.971 332.098 158.156 332.945 155.434C333.852 152.47 333.852 149.748 332.945 146.179ZM320.12 163.117C321.027 163.117 321.814 163.903 321.814 164.81C321.814 165.718 321.027 166.504 320.12 166.504C319.213 166.565 318.426 165.718 318.426 164.81C318.366 163.903 319.152 163.117 320.12 163.117ZM310.199 150.171H319.152C321.632 150.171 323.568 148.114 323.568 145.574V137.165C323.568 134.806 321.511 132.991 319.152 132.568C316.188 132.144 312.921 132.144 310.199 132.568C306.388 133.233 305.783 134.624 305.783 137.165V140.553H314.736V141.642H302.516C299.976 141.642 297.677 143.275 297.012 146.179C296.165 149.566 296.165 151.683 297.012 155.192C297.677 157.854 299.129 159.729 301.791 159.729H304.694V155.676C304.634 152.712 307.235 150.171 310.199 150.171ZM309.655 138.254C308.747 138.254 307.961 137.468 307.961 136.56C307.961 135.653 308.747 134.866 309.655 134.866C310.562 134.866 311.348 135.653 311.348 136.56C311.348 137.468 310.562 138.254 309.655 138.254Z" fill="#CA6263"/>
<path d="M285 11C285 5.47715 289.477 1 295 1H335C340.523 1 345 5.47715 345 11V51C345 56.5228 340.523 61 335 61H295C289.477 61 285 56.5228 285 51V11Z" fill="url(#paint26_linear_36_800)"/>
<path d="M295 1V1.5H335V1V0.5H295V1ZM345 11H344.5V51H345H345.5V11H345ZM335 61V60.5H295V61V61.5H335V61ZM285 51H285.5V11H285H284.5V51H285ZM295 61V60.5C289.753 60.5 285.5 56.2467 285.5 51H285H284.5C284.5 56.799 289.201 61.5 295 61.5V61ZM345 51H344.5C344.5 56.2467 340.247 60.5 335 60.5V61V61.5C340.799 61.5 345.5 56.799 345.5 51H345ZM335 1V1.5C340.247 1.5 344.5 5.7533 344.5 11H345H345.5C345.5 5.20101 340.799 0.5 335 0.5V1ZM295 1V0.5C289.201 0.5 284.5 5.20101 284.5 11H285H285.5C285.5 5.7533 289.753 1.5 295 1.5V1Z" fill="url(#paint27_linear_36_800)" fill-opacity="0.8"/>
<path d="M295 1V1.5H335V1V0.5H295V1ZM345 11H344.5V51H345H345.5V11H345ZM335 61V60.5H295V61V61.5H335V61ZM285 51H285.5V11H285H284.5V51H285ZM295 61V60.5C289.753 60.5 285.5 56.2467 285.5 51H285H284.5C284.5 56.799 289.201 61.5 295 61.5V61ZM345 51H344.5C344.5 56.2467 340.247 60.5 335 60.5V61V61.5C340.799 61.5 345.5 56.799 345.5 51H345ZM335 1V1.5C340.247 1.5 344.5 5.7533 344.5 11H345H345.5C345.5 5.20101 340.799 0.5 335 0.5V1ZM295 1V0.5C289.201 0.5 284.5 5.20101 284.5 11H285H285.5C285.5 5.7533 289.753 1.5 295 1.5V1Z" fill="url(#paint28_linear_36_800)" fill-opacity="0.8"/>
<path d="M295 1V1.5H335V1V0.5H295V1ZM345 11H344.5V51H345H345.5V11H345ZM335 61V60.5H295V61V61.5H335V61ZM285 51H285.5V11H285H284.5V51H285ZM295 61V60.5C289.753 60.5 285.5 56.2467 285.5 51H285H284.5C284.5 56.799 289.201 61.5 295 61.5V61ZM345 51H344.5C344.5 56.2467 340.247 60.5 335 60.5V61V61.5C340.799 61.5 345.5 56.799 345.5 51H345ZM335 1V1.5C340.247 1.5 344.5 5.7533 344.5 11H345H345.5C345.5 5.20101 340.799 0.5 335 0.5V1ZM295 1V0.5C289.201 0.5 284.5 5.20101 284.5 11H285H285.5C285.5 5.7533 289.753 1.5 295 1.5V1Z" fill="url(#paint29_linear_36_800)" fill-opacity="0.8"/>
<path d="M295 1V1.5H335V1V0.5H295V1ZM345 11H344.5V51H345H345.5V11H345ZM335 61V60.5H295V61V61.5H335V61ZM285 51H285.5V11H285H284.5V51H285ZM295 61V60.5C289.753 60.5 285.5 56.2467 285.5 51H285H284.5C284.5 56.799 289.201 61.5 295 61.5V61ZM345 51H344.5C344.5 56.2467 340.247 60.5 335 60.5V61V61.5C340.799 61.5 345.5 56.799 345.5 51H345ZM335 1V1.5C340.247 1.5 344.5 5.7533 344.5 11H345H345.5C345.5 5.20101 340.799 0.5 335 0.5V1ZM295 1V0.5C289.201 0.5 284.5 5.20101 284.5 11H285H285.5C285.5 5.7533 289.753 1.5 295 1.5V1Z" fill="url(#paint30_linear_36_800)" fill-opacity="0.8"/>
<path d="M301.044 20.5365C301.044 18.6078 302.608 17.0443 304.536 17.0443H324.714C326.642 17.0443 328.206 18.6078 328.206 20.5365V25.3201H301.044V20.5365Z" fill="#CA6263"/>
<path d="M301.044 27.6481V40.7135C301.044 42.6421 302.608 44.2057 304.536 44.2057H309.322V27.6481H301.044Z" fill="#CA6263"/>
<path d="M311.65 44.2058H324.714C326.642 44.2058 328.206 42.6422 328.206 40.7136V35.9254H311.65V44.2058Z" fill="#CA6263"/>
<path d="M328.206 33.5972V27.6481H311.65V33.5972H328.206Z" fill="#CA6263"/>
<g filter="url(#filter2_d_36_800)">
<path d="M31.25 71.0566L29.8066 72.5L31.25 73.9434L32.6934 72.5L31.25 71.0566ZM31.25 110.943L32.6934 109.5L31.25 108.057L29.8066 109.5L31.25 110.943ZM31.25 72.5H31L31 109.5H31.25H31.5L31.5 72.5H31.25Z" fill="#CA6263" fill-opacity="0.2"/>
</g>
<g filter="url(#filter3_d_36_800)">
<path d="M100.834 90.75C100.834 90.0136 100.237 89.4167 99.5009 89.4167C98.7645 89.4167 98.1676 90.0136 98.1676 90.75C98.1676 91.4864 98.7645 92.0833 99.5009 92.0833C100.237 92.0833 100.834 91.4864 100.834 90.75ZM99.5009 90.75V90.5H30.9991V90.75V91H99.5009V90.75Z" fill="#CA6263" fill-opacity="0.2"/>
</g>
<g filter="url(#filter4_d_36_800)">
<path d="M312 70.5566L310.557 72L312 73.4434L313.443 72L312 70.5566ZM312 110.443L313.443 109L312 107.557L310.557 109L312 110.443ZM312 72H311.75V109H312H312.25V72H312Z" fill="#CA6263" fill-opacity="0.2"/>
</g>
<g filter="url(#filter5_d_36_800)">
<path d="M242.667 91.0097C242.672 91.7461 243.273 92.3387 244.01 92.3333C244.746 92.3279 245.339 91.7266 245.333 90.9903C245.328 90.2539 244.727 89.6613 243.99 89.6667C243.254 89.6721 242.661 90.2734 242.667 91.0097ZM244 91L244.002 91.25L312.502 90.75L312.5 90.5L312.498 90.25L243.998 90.75L244 91Z" fill="#CA6263" fill-opacity="0.2"/>
</g>
<defs>
<filter id="filter0_d_36_800" x="8" y="132" width="45.25" height="45.25" filterUnits="userSpaceOnUse" color-interpolation-filters="sRGB">
<feFlood flood-opacity="0" result="BackgroundImageFix"/>
<feColorMatrix in="SourceAlpha" type="matrix" values="0 0 0 0 0 0 0 0 0 0 0 0 0 0 0 0 0 0 127 0" result="hardAlpha"/>
<feOffset dy="4"/>
<feGaussianBlur stdDeviation="2"/>
<feComposite in2="hardAlpha" operator="out"/>
<feColorMatrix type="matrix" values="0 0 0 0 0 0 0 0 0 0 0 0 0 0 0 0 0 0 0.25 0"/>
<feBlend mode="normal" in2="BackgroundImageFix" result="effect1_dropShadow_36_800"/>
<feBlend mode="normal" in="SourceGraphic" in2="effect1_dropShadow_36_800" result="shape"/>
</filter>
<filter id="filter1_d_36_800" x="139" y="62" width="68" height="66" filterUnits="userSpaceOnUse" color-interpolation-filters="sRGB">
<feFlood flood-opacity="0" result="BackgroundImageFix"/>
<feColorMatrix in="SourceAlpha" type="matrix" values="0 0 0 0 0 0 0 0 0 0 0 0 0 0 0 0 0 0 127 0" result="hardAlpha"/>
<feOffset dy="4"/>
<feGaussianBlur stdDeviation="2"/>
<feComposite in2="hardAlpha" operator="out"/>
<feColorMatrix type="matrix" values="0 0 0 0 0 0 0 0 0 0 0 0 0 0 0 0 0 0 0.25 0"/>
<feBlend mode="normal" in2="BackgroundImageFix" result="effect1_dropShadow_36_800"/>
<feBlend mode="normal" in="SourceGraphic" in2="effect1_dropShadow_36_800" result="shape"/>
</filter>
<filter id="filter2_d_36_800" x="25.8066" y="71.0566" width="10.8867" height="47.8867" filterUnits="userSpaceOnUse" color-interpolation-filters="sRGB">
<feFlood flood-opacity="0" result="BackgroundImageFix"/>
<feColorMatrix in="SourceAlpha" type="matrix" values="0 0 0 0 0 0 0 0 0 0 0 0 0 0 0 0 0 0 127 0" result="hardAlpha"/>
<feOffset dy="4"/>
<feGaussianBlur stdDeviation="2"/>
<feComposite in2="hardAlpha" operator="out"/>
<feColorMatrix type="matrix" values="0 0 0 0 0.792157 0 0 0 0 0.384314 0 0 0 0 0.388235 0 0 0 0.1 0"/>
<feBlend mode="normal" in2="BackgroundImageFix" result="effect1_dropShadow_36_800"/>
<feBlend mode="normal" in="SourceGraphic" in2="effect1_dropShadow_36_800" result="shape"/>
</filter>
<filter id="filter3_d_36_800" x="26.9991" y="89.4166" width="77.8352" height="10.6667" filterUnits="userSpaceOnUse" color-interpolation-filters="sRGB">
<feFlood flood-opacity="0" result="BackgroundImageFix"/>
<feColorMatrix in="SourceAlpha" type="matrix" values="0 0 0 0 0 0 0 0 0 0 0 0 0 0 0 0 0 0 127 0" result="hardAlpha"/>
<feOffset dy="4"/>
<feGaussianBlur stdDeviation="2"/>
<feComposite in2="hardAlpha" operator="out"/>
<feColorMatrix type="matrix" values="0 0 0 0 0.792157 0 0 0 0 0.384314 0 0 0 0 0.388235 0 0 0 0.1 0"/>
<feBlend mode="normal" in2="BackgroundImageFix" result="effect1_dropShadow_36_800"/>
<feBlend mode="normal" in="SourceGraphic" in2="effect1_dropShadow_36_800" result="shape"/>
</filter>
<filter id="filter4_d_36_800" x="306.557" y="70.5566" width="10.8867" height="47.8867" filterUnits="userSpaceOnUse" color-interpolation-filters="sRGB">
<feFlood flood-opacity="0" result="BackgroundImageFix"/>
<feColorMatrix in="SourceAlpha" type="matrix" values="0 0 0 0 0 0 0 0 0 0 0 0 0 0 0 0 0 0 127 0" result="hardAlpha"/>
<feOffset dy="4"/>
<feGaussianBlur stdDeviation="2"/>
<feComposite in2="hardAlpha" operator="out"/>
<feColorMatrix type="matrix" values="0 0 0 0 0.792157 0 0 0 0 0.384314 0 0 0 0 0.388235 0 0 0 0.1 0"/>
<feBlend mode="normal" in2="BackgroundImageFix" result="effect1_dropShadow_36_800"/>
<feBlend mode="normal" in="SourceGraphic" in2="effect1_dropShadow_36_800" result="shape"/>
</filter>
<filter id="filter5_d_36_800" x="238.667" y="89.6666" width="77.8352" height="10.6667" filterUnits="userSpaceOnUse" color-interpolation-filters="sRGB">
<feFlood flood-opacity="0" result="BackgroundImageFix"/>
<feColorMatrix in="SourceAlpha" type="matrix" values="0 0 0 0 0 0 0 0 0 0 0 0 0 0 0 0 0 0 127 0" result="hardAlpha"/>
<feOffset dy="4"/>
<feGaussianBlur stdDeviation="2"/>
<feComposite in2="hardAlpha" operator="out"/>
<feColorMatrix type="matrix" values="0 0 0 0 0.792157 0 0 0 0 0.384314 0 0 0 0 0.388235 0 0 0 0.1 0"/>
<feBlend mode="normal" in2="BackgroundImageFix" result="effect1_dropShadow_36_800"/>
<feBlend mode="normal" in="SourceGraphic" in2="effect1_dropShadow_36_800" result="shape"/>
</filter>
<linearGradient id="paint0_linear_36_800" x1="46.2143" y1="266.286" x2="52.864" y2="197.101" gradientUnits="userSpaceOnUse">
<stop stop-color="#FAFAFA"/>
<stop offset="1" stop-color="#949494" stop-opacity="0"/>
</linearGradient>
<linearGradient id="paint1_linear_36_800" x1="54.25" y1="181" x2="49" y2="178" gradientUnits="userSpaceOnUse">
<stop stop-color="#FAFAFA" stop-opacity="0.7"/>
<stop offset="1" stop-color="#949494" stop-opacity="0"/>
</linearGradient>
<linearGradient id="paint2_linear_36_800" x1="11.875" y1="178.75" x2="7.375" y2="181" gradientUnits="userSpaceOnUse">
<stop stop-color="#FAFAFA" stop-opacity="0"/>
<stop offset="1" stop-color="#FAFAFA"/>
</linearGradient>
<linearGradient id="paint3_linear_36_800" x1="53.5" y1="135.625" x2="62.875" y2="130" gradientUnits="userSpaceOnUse">
<stop stop-color="#FAFAFA" stop-opacity="0"/>
<stop offset="1" stop-color="#FAFAFA"/>
</linearGradient>
<linearGradient id="paint4_linear_36_800" x1="5.125" y1="137.125" x2="-1.74797" y2="133.252" gradientUnits="userSpaceOnUse">
<stop stop-color="#FAFAFA" stop-opacity="0"/>
<stop offset="1" stop-color="#FAFAFA"/>
</linearGradient>
<linearGradient id="paint5_linear_36_800" x1="46.2143" y1="146.286" x2="52.864" y2="77.1006" gradientUnits="userSpaceOnUse">
<stop stop-color="#FAFAFA"/>
<stop offset="1" stop-color="#949494" stop-opacity="0"/>
</linearGradient>
<linearGradient id="paint6_linear_36_800" x1="54.25" y1="61" x2="49" y2="58" gradientUnits="userSpaceOnUse">
<stop stop-color="#FAFAFA" stop-opacity="0.7"/>
<stop offset="1" stop-color="#949494" stop-opacity="0"/>
</linearGradient>
<linearGradient id="paint7_linear_36_800" x1="11.875" y1="58.75" x2="7.375" y2="61" gradientUnits="userSpaceOnUse">
<stop stop-color="#FAFAFA" stop-opacity="0"/>
<stop offset="1" stop-color="#FAFAFA"/>
</linearGradient>
<linearGradient id="paint8_linear_36_800" x1="53.5" y1="15.625" x2="62.875" y2="10" gradientUnits="userSpaceOnUse">
<stop stop-color="#FAFAFA" stop-opacity="0"/>
<stop offset="1" stop-color="#FAFAFA"/>
</linearGradient>
<linearGradient id="paint9_linear_36_800" x1="5.125" y1="17.125" x2="-1.74797" y2="13.2516" gradientUnits="userSpaceOnUse">
<stop stop-color="#FAFAFA" stop-opacity="0"/>
<stop offset="1" stop-color="#FAFAFA"/>
</linearGradient>
<linearGradient id="paint10_linear_36_800" x1="233" y1="143.532" x2="54.1522" y2="-43.0148" gradientUnits="userSpaceOnUse">
<stop stop-color="white" stop-opacity="0"/>
<stop offset="1" stop-color="#121212"/>
</linearGradient>
<linearGradient id="paint11_linear_36_800" x1="193.286" y1="244.714" x2="202.152" y2="152.467" gradientUnits="userSpaceOnUse">
<stop stop-color="#FAFAFA"/>
<stop offset="1" stop-color="#949494" stop-opacity="0"/>
</linearGradient>
<linearGradient id="paint12_linear_36_800" x1="204" y1="131" x2="197" y2="127" gradientUnits="userSpaceOnUse">
<stop stop-color="#FAFAFA" stop-opacity="0.7"/>
<stop offset="1" stop-color="#949494" stop-opacity="0"/>
</linearGradient>
<linearGradient id="paint13_linear_36_800" x1="147.5" y1="128" x2="141.5" y2="131" gradientUnits="userSpaceOnUse">
<stop stop-color="#FAFAFA" stop-opacity="0"/>
<stop offset="1" stop-color="#FAFAFA"/>
</linearGradient>
<linearGradient id="paint14_linear_36_800" x1="203" y1="70.5" x2="215.5" y2="63" gradientUnits="userSpaceOnUse">
<stop stop-color="#FAFAFA" stop-opacity="0"/>
<stop offset="1" stop-color="#FAFAFA"/>
</linearGradient>
<linearGradient id="paint15_linear_36_800" x1="138.5" y1="72.5" x2="129.336" y2="67.3354" gradientUnits="userSpaceOnUse">
<stop stop-color="#FAFAFA" stop-opacity="0"/>
<stop offset="1" stop-color="#FAFAFA"/>
</linearGradient>
<linearGradient id="paint16_linear_36_800" x1="330.214" y1="266.286" x2="336.864" y2="197.101" gradientUnits="userSpaceOnUse">
<stop stop-color="#FAFAFA"/>
<stop offset="1" stop-color="#949494" stop-opacity="0"/>
</linearGradient>
<linearGradient id="paint17_linear_36_800" x1="338.25" y1="181" x2="333" y2="178" gradientUnits="userSpaceOnUse">
<stop stop-color="#FAFAFA" stop-opacity="0.7"/>
<stop offset="1" stop-color="#949494" stop-opacity="0"/>
</linearGradient>
<linearGradient id="paint18_linear_36_800" x1="295.875" y1="178.75" x2="291.375" y2="181" gradientUnits="userSpaceOnUse">
<stop stop-color="#FAFAFA" stop-opacity="0"/>
<stop offset="1" stop-color="#FAFAFA"/>
</linearGradient>
<linearGradient id="paint19_linear_36_800" x1="337.5" y1="135.625" x2="346.875" y2="130" gradientUnits="userSpaceOnUse">
<stop stop-color="#FAFAFA" stop-opacity="0"/>
<stop offset="1" stop-color="#FAFAFA"/>
</linearGradient>
<linearGradient id="paint20_linear_36_800" x1="289.125" y1="137.125" x2="282.252" y2="133.252" gradientUnits="userSpaceOnUse">
<stop stop-color="#FAFAFA" stop-opacity="0"/>
<stop offset="1" stop-color="#FAFAFA"/>
</linearGradient>
<linearGradient id="paint21_linear_36_800" x1="330.214" y1="266.286" x2="336.864" y2="197.101" gradientUnits="userSpaceOnUse">
<stop stop-color="#FAFAFA"/>
<stop offset="1" stop-color="#949494" stop-opacity="0"/>
</linearGradient>
<linearGradient id="paint22_linear_36_800" x1="338.25" y1="181" x2="333" y2="178" gradientUnits="userSpaceOnUse">
<stop stop-color="#FAFAFA" stop-opacity="0.7"/>
<stop offset="1" stop-color="#949494" stop-opacity="0"/>
</linearGradient>
<linearGradient id="paint23_linear_36_800" x1="295.875" y1="178.75" x2="291.375" y2="181" gradientUnits="userSpaceOnUse">
<stop stop-color="#FAFAFA" stop-opacity="0"/>
<stop offset="1" stop-color="#FAFAFA"/>
</linearGradient>
<linearGradient id="paint24_linear_36_800" x1="337.5" y1="135.625" x2="346.875" y2="130" gradientUnits="userSpaceOnUse">
<stop stop-color="#FAFAFA" stop-opacity="0"/>
<stop offset="1" stop-color="#FAFAFA"/>
</linearGradient>
<linearGradient id="paint25_linear_36_800" x1="289.125" y1="137.125" x2="282.252" y2="133.252" gradientUnits="userSpaceOnUse">
<stop stop-color="#FAFAFA" stop-opacity="0"/>
<stop offset="1" stop-color="#FAFAFA"/>
</linearGradient>
<linearGradient id="paint26_linear_36_800" x1="330.214" y1="146.286" x2="336.864" y2="77.1006" gradientUnits="userSpaceOnUse">
<stop stop-color="#FAFAFA"/>
<stop offset="1" stop-color="#949494" stop-opacity="0"/>
</linearGradient>
<linearGradient id="paint27_linear_36_800" x1="338.25" y1="61" x2="333" y2="58" gradientUnits="userSpaceOnUse">
<stop stop-color="#FAFAFA" stop-opacity="0.7"/>
<stop offset="1" stop-color="#949494" stop-opacity="0"/>
</linearGradient>
<linearGradient id="paint28_linear_36_800" x1="295.875" y1="58.75" x2="291.375" y2="61" gradientUnits="userSpaceOnUse">
<stop stop-color="#FAFAFA" stop-opacity="0"/>
<stop offset="1" stop-color="#FAFAFA"/>
</linearGradient>
<linearGradient id="paint29_linear_36_800" x1="337.5" y1="15.625" x2="346.875" y2="10" gradientUnits="userSpaceOnUse">
<stop stop-color="#FAFAFA" stop-opacity="0"/>
<stop offset="1" stop-color="#FAFAFA"/>
</linearGradient>
<linearGradient id="paint30_linear_36_800" x1="289.125" y1="17.125" x2="282.252" y2="13.2516" gradientUnits="userSpaceOnUse">
<stop stop-color="#FAFAFA" stop-opacity="0"/>
<stop offset="1" stop-color="#FAFAFA"/>
</linearGradient>
</defs>
</svg>
