<svg width="120" height="120" viewBox="0 0 120 120" fill="none" xmlns="http://www.w3.org/2000/svg">
<rect width="120" height="120" rx="20" fill="url(#paint0_linear_10_346)"/>
<rect width="120" height="120" rx="20" fill="url(#paint1_linear_10_346)" fill-opacity="0.2"/>
<rect x="0.5" y="0.5" width="119" height="119" rx="19.5" stroke="#FAFAFA" stroke-opacity="0.8"/>
<path d="M20 30C20 24.4772 24.4772 20 30 20H90C95.5228 20 100 24.4772 100 30V90C100 95.5228 95.5228 100 90 100H30C24.4772 100 20 95.5228 20 90V30Z" fill="url(#paint2_linear_10_346)"/>
<path d="M30 20V20.5H90V20V19.5H30V20ZM100 30H99.5V90H100H100.5V30H100ZM90 100V99.5H30V100V100.5H90V100ZM20 90H20.5V30H20H19.5V90H20ZM30 100V99.5C24.7533 99.5 20.5 95.2467 20.5 90H20H19.5C19.5 95.799 24.201 100.5 30 100.5V100ZM100 90H99.5C99.5 95.2467 95.2467 99.5 90 99.5V100V100.5C95.799 100.5 100.5 95.799 100.5 90H100ZM90 20V20.5C95.2467 20.5 99.5 24.7533 99.5 30H100H100.5C100.5 24.201 95.799 19.5 90 19.5V20ZM30 20V19.5C24.201 19.5 19.5 24.201 19.5 30H20H20.5C20.5 24.7533 24.7533 20.5 30 20.5V20Z" fill="url(#paint3_linear_10_346)" fill-opacity="0.8"/>
<path d="M30 20V20.5H90V20V19.5H30V20ZM100 30H99.5V90H100H100.5V30H100ZM90 100V99.5H30V100V100.5H90V100ZM20 90H20.5V30H20H19.5V90H20ZM30 100V99.5C24.7533 99.5 20.5 95.2467 20.5 90H20H19.5C19.5 95.799 24.201 100.5 30 100.5V100ZM100 90H99.5C99.5 95.2467 95.2467 99.5 90 99.5V100V100.5C95.799 100.5 100.5 95.799 100.5 90H100ZM90 20V20.5C95.2467 20.5 99.5 24.7533 99.5 30H100H100.5C100.5 24.201 95.799 19.5 90 19.5V20ZM30 20V19.5C24.201 19.5 19.5 24.201 19.5 30H20H20.5C20.5 24.7533 24.7533 20.5 30 20.5V20Z" fill="url(#paint4_linear_10_346)" fill-opacity="0.8"/>
<path d="M30 20V20.5H90V20V19.5H30V20ZM100 30H99.5V90H100H100.5V30H100ZM90 100V99.5H30V100V100.5H90V100ZM20 90H20.5V30H20H19.5V90H20ZM30 100V99.5C24.7533 99.5 20.5 95.2467 20.5 90H20H19.5C19.5 95.799 24.201 100.5 30 100.5V100ZM100 90H99.5C99.5 95.2467 95.2467 99.5 90 99.5V100V100.5C95.799 100.5 100.5 95.799 100.5 90H100ZM90 20V20.5C95.2467 20.5 99.5 24.7533 99.5 30H100H100.5C100.5 24.201 95.799 19.5 90 19.5V20ZM30 20V19.5C24.201 19.5 19.5 24.201 19.5 30H20H20.5C20.5 24.7533 24.7533 20.5 30 20.5V20Z" fill="url(#paint5_linear_10_346)" fill-opacity="0.8"/>
<path d="M30 20V20.5H90V20V19.5H30V20ZM100 30H99.5V90H100H100.5V30H100ZM90 100V99.5H30V100V100.5H90V100ZM20 90H20.5V30H20H19.5V90H20ZM30 100V99.5C24.7533 99.5 20.5 95.2467 20.5 90H20H19.5C19.5 95.799 24.201 100.5 30 100.5V100ZM100 90H99.5C99.5 95.2467 95.2467 99.5 90 99.5V100V100.5C95.799 100.5 100.5 95.799 100.5 90H100ZM90 20V20.5C95.2467 20.5 99.5 24.7533 99.5 30H100H100.5C100.5 24.201 95.799 19.5 90 19.5V20ZM30 20V19.5C24.201 19.5 19.5 24.201 19.5 30H20H20.5C20.5 24.7533 24.7533 20.5 30 20.5V20Z" fill="url(#paint6_linear_10_346)" fill-opacity="0.8"/>
<path d="M79.69 39.921C78.502 39.117 76.843 38.409 74.761 37.815C70.663 36.645 65.245 36 59.5 36C53.755 36 48.334 36.645 44.239 37.815C42.157 38.409 40.501 39.117 39.31 39.921C37.399 41.211 37 42.579 37 43.5V45C37 46.284 37.963 48.399 38.917 49.827L53.59 71.835C54.343 72.963 55.003 75.144 55.003 76.5V85.5C55.003 86.019 55.273 86.502 55.714 86.775C55.954 86.925 56.227 87 56.503 87C56.731 87 56.962 86.946 57.175 86.841L63.175 83.841C63.682 83.586 64.003 83.067 64.003 82.5V76.5C64.003 75.144 64.663 72.963 65.416 71.835L80.089 49.827C81.04 48.399 82.006 46.281 82.006 45V43.5C82.006 42.579 81.604 41.211 79.696 39.921H79.69ZM45.064 40.701C48.901 39.606 54.028 39 59.5 39C64.972 39 70.102 39.603 73.936 40.701C78.07 41.883 79 43.149 79 43.5C79 43.851 78.07 45.12 73.936 46.299C70.099 47.394 64.972 48 59.5 48C54.028 48 48.898 47.397 45.064 46.299C40.93 45.117 40 43.851 40 43.5C40 43.149 40.93 41.88 45.064 40.701ZM62.917 70.173C61.843 71.784 61 74.565 61 76.5V81.573L58 83.073V76.5C58 74.562 57.157 71.784 56.083 70.173L41.443 48.213C42.265 48.564 43.198 48.891 44.239 49.185C48.337 50.355 53.755 51 59.5 51C65.245 51 70.666 50.355 74.761 49.185C75.799 48.888 76.735 48.564 77.557 48.21L62.917 70.173Z" fill="#CA6263"/>
<defs>
<linearGradient id="paint0_linear_10_346" x1="90.4286" y1="290.571" x2="103.728" y2="152.201" gradientUnits="userSpaceOnUse">
<stop stop-color="#FAFAFA"/>
<stop offset="1" stop-color="#949494" stop-opacity="0"/>
</linearGradient>
<linearGradient id="paint1_linear_10_346" x1="91.2857" y1="103.714" x2="-58.7143" y2="-74.1429" gradientUnits="userSpaceOnUse">
<stop stop-color="white" stop-opacity="0"/>
<stop offset="1" stop-color="#121212"/>
</linearGradient>
<linearGradient id="paint2_linear_10_346" x1="80.2857" y1="213.714" x2="89.152" y2="121.467" gradientUnits="userSpaceOnUse">
<stop stop-color="#FAFAFA"/>
<stop offset="1" stop-color="#949494" stop-opacity="0"/>
</linearGradient>
<linearGradient id="paint3_linear_10_346" x1="91" y1="100" x2="84" y2="96" gradientUnits="userSpaceOnUse">
<stop stop-color="#FAFAFA" stop-opacity="0.7"/>
<stop offset="1" stop-color="#949494" stop-opacity="0"/>
</linearGradient>
<linearGradient id="paint4_linear_10_346" x1="34.5" y1="97" x2="28.5" y2="100" gradientUnits="userSpaceOnUse">
<stop stop-color="#FAFAFA" stop-opacity="0"/>
<stop offset="1" stop-color="#FAFAFA"/>
</linearGradient>
<linearGradient id="paint5_linear_10_346" x1="90" y1="39.5" x2="102.5" y2="32" gradientUnits="userSpaceOnUse">
<stop stop-color="#FAFAFA" stop-opacity="0"/>
<stop offset="1" stop-color="#FAFAFA"/>
</linearGradient>
<linearGradient id="paint6_linear_10_346" x1="25.5" y1="41.5" x2="16.336" y2="36.3354" gradientUnits="userSpaceOnUse">
<stop stop-color="#FAFAFA" stop-opacity="0"/>
<stop offset="1" stop-color="#FAFAFA"/>
</linearGradient>
</defs>
</svg>
