<svg width="120" height="212" viewBox="0 0 120 212" fill="none" xmlns="http://www.w3.org/2000/svg">
<rect x="59" y="1" width="2" height="50" rx="1" fill="#FF4E50" fill-opacity="0.3" stroke="#FAFAFA" stroke-opacity="0.3"/>
<rect x="53" y="51" width="15" height="15" rx="7.5" fill="#FF4E50" fill-opacity="0.5"/>
<rect x="53.5" y="51.5" width="14" height="14" rx="7" stroke="#FAFAFA" stroke-opacity="0.4"/>
<rect y="92" width="120" height="120" rx="20" fill="url(#paint0_linear_39_801)"/>
<rect y="92" width="120" height="120" rx="20" fill="url(#paint1_linear_39_801)" fill-opacity="0.2"/>
<rect x="0.5" y="92.5" width="119" height="119" rx="19.5" stroke="#FAFAFA" stroke-opacity="0.8"/>
<path d="M20 122C20 116.477 24.4772 112 30 112H90C95.5228 112 100 116.477 100 122V182C100 187.523 95.5228 192 90 192H30C24.4772 192 20 187.523 20 182V122Z" fill="url(#paint2_linear_39_801)"/>
<path d="M30 112V112.5H90V112V111.5H30V112ZM100 122H99.5V182H100H100.5V122H100ZM90 192V191.5H30V192V192.5H90V192ZM20 182H20.5V122H20H19.5V182H20ZM30 192V191.5C24.7533 191.5 20.5 187.247 20.5 182H20H19.5C19.5 187.799 24.201 192.5 30 192.5V192ZM100 182H99.5C99.5 187.247 95.2467 191.5 90 191.5V192V192.5C95.799 192.5 100.5 187.799 100.5 182H100ZM90 112V112.5C95.2467 112.5 99.5 116.753 99.5 122H100H100.5C100.5 116.201 95.799 111.5 90 111.5V112ZM30 112V111.5C24.201 111.5 19.5 116.201 19.5 122H20H20.5C20.5 116.753 24.7533 112.5 30 112.5V112Z" fill="url(#paint3_linear_39_801)" fill-opacity="0.8"/>
<path d="M30 112V112.5H90V112V111.5H30V112ZM100 122H99.5V182H100H100.5V122H100ZM90 192V191.5H30V192V192.5H90V192ZM20 182H20.5V122H20H19.5V182H20ZM30 192V191.5C24.7533 191.5 20.5 187.247 20.5 182H20H19.5C19.5 187.799 24.201 192.5 30 192.5V192ZM100 182H99.5C99.5 187.247 95.2467 191.5 90 191.5V192V192.5C95.799 192.5 100.5 187.799 100.5 182H100ZM90 112V112.5C95.2467 112.5 99.5 116.753 99.5 122H100H100.5C100.5 116.201 95.799 111.5 90 111.5V112ZM30 112V111.5C24.201 111.5 19.5 116.201 19.5 122H20H20.5C20.5 116.753 24.7533 112.5 30 112.5V112Z" fill="url(#paint4_linear_39_801)" fill-opacity="0.8"/>
<path d="M30 112V112.5H90V112V111.5H30V112ZM100 122H99.5V182H100H100.5V122H100ZM90 192V191.5H30V192V192.5H90V192ZM20 182H20.5V122H20H19.5V182H20ZM30 192V191.5C24.7533 191.5 20.5 187.247 20.5 182H20H19.5C19.5 187.799 24.201 192.5 30 192.5V192ZM100 182H99.5C99.5 187.247 95.2467 191.5 90 191.5V192V192.5C95.799 192.5 100.5 187.799 100.5 182H100ZM90 112V112.5C95.2467 112.5 99.5 116.753 99.5 122H100H100.5C100.5 116.201 95.799 111.5 90 111.5V112ZM30 112V111.5C24.201 111.5 19.5 116.201 19.5 122H20H20.5C20.5 116.753 24.7533 112.5 30 112.5V112Z" fill="url(#paint5_linear_39_801)" fill-opacity="0.8"/>
<path d="M30 112V112.5H90V112V111.5H30V112ZM100 122H99.5V182H100H100.5V122H100ZM90 192V191.5H30V192V192.5H90V192ZM20 182H20.5V122H20H19.5V182H20ZM30 192V191.5C24.7533 191.5 20.5 187.247 20.5 182H20H19.5C19.5 187.799 24.201 192.5 30 192.5V192ZM100 182H99.5C99.5 187.247 95.2467 191.5 90 191.5V192V192.5C95.799 192.5 100.5 187.799 100.5 182H100ZM90 112V112.5C95.2467 112.5 99.5 116.753 99.5 122H100H100.5C100.5 116.201 95.799 111.5 90 111.5V112ZM30 112V111.5C24.201 111.5 19.5 116.201 19.5 122H20H20.5C20.5 116.753 24.7533 112.5 30 112.5V112Z" fill="url(#paint6_linear_39_801)" fill-opacity="0.8"/>
<g clip-path="url(#clip0_39_801)" filter="url(#filter0_d_39_801)">
<path d="M70.5 149C66.366 149 63 145.634 63 141.5C63 137.366 66.366 134 70.5 134C74.634 134 78 137.366 78 141.5C78 145.634 74.634 149 70.5 149ZM70.5 137C68.019 137 66 139.019 66 141.5C66 143.981 68.019 146 70.5 146C72.981 146 75 143.981 75 141.5C75 139.019 72.981 137 70.5 137Z" fill="#CA6263"/>
<path d="M31.5 182C31.11 182 30.726 181.847 30.438 181.562C30.027 181.151 29.889 180.536 30.09 179.99C34.707 167.297 39.561 160.859 44.514 160.859C46.149 160.859 47.676 161.561 49.059 162.941C51.243 165.125 51.321 167.3 51.003 168.74C50.001 173.264 43.611 177.695 32.013 181.913C31.845 181.973 31.671 182 31.5 182ZM44.517 163.856C43.032 163.856 41.283 165.158 39.462 167.621C37.671 170.042 35.871 173.492 34.098 177.902C38.103 176.291 41.322 174.656 43.695 173.027C46.896 170.828 47.844 169.127 48.075 168.089C48.306 167.051 47.934 166.058 46.938 165.062C46.128 164.252 45.336 163.859 44.514 163.859L44.517 163.856Z" fill="#CA6263"/>
<path d="M88.5 122C80.715 122 73.779 123.32 67.878 125.924C63.015 128.072 58.851 131.084 55.5 134.882C54.876 135.59 54.297 136.307 53.76 137.027C51.174 137.198 48.528 138.227 45.888 140.087C43.653 141.659 41.409 143.837 39.213 146.558C35.523 151.13 33.255 155.639 33.159 155.828C32.832 156.485 33.027 157.283 33.621 157.712C33.885 157.904 34.194 157.997 34.5 157.997C34.884 157.997 35.268 157.85 35.559 157.562C35.574 157.547 37.008 156.137 39.453 154.754C41.469 153.614 44.577 152.273 48.336 152.036C49.287 154.469 52.008 157.379 53.313 158.684C54.618 159.989 57.528 162.71 59.961 163.661C59.724 167.42 58.383 170.528 57.243 172.544C55.857 174.992 54.45 176.423 54.438 176.435C53.919 176.954 53.853 177.776 54.282 178.373C54.573 178.775 55.029 178.997 55.5 178.997C55.728 178.997 55.956 178.946 56.169 178.838C56.358 178.742 60.867 176.474 65.439 172.784C68.16 170.588 70.338 168.344 71.91 166.109C73.77 163.466 74.796 160.823 74.97 158.237C75.687 157.703 76.404 157.124 77.115 156.497C80.913 153.146 83.925 148.982 86.073 144.119C88.677 138.221 89.997 131.282 89.997 123.497V121.997H88.497L88.5 122ZM39.321 151.424C42.18 147.275 46.551 142.13 51.477 140.513C49.53 143.924 48.522 147.056 48.159 149.042C44.682 149.255 41.685 150.266 39.321 151.424ZM60.579 172.67C61.737 170.306 62.748 167.312 62.958 163.838C64.941 163.475 68.076 162.467 71.484 160.523C69.864 165.44 64.725 169.811 60.579 172.67ZM75.132 154.25C68.892 159.755 62.43 161 61.5 161C61.494 161 60.879 160.988 59.223 159.821C58.068 159.008 56.721 157.85 55.437 156.566C54.153 155.282 52.995 153.935 52.182 152.78C51.015 151.124 51.003 150.509 51.003 150.503C51.003 149.573 52.248 143.111 57.753 136.871C64.341 129.407 74.424 125.324 86.985 125.021C86.682 137.582 82.602 147.665 75.135 154.253L75.132 154.25Z" fill="#CA6263"/>
</g>
<defs>
<filter id="filter0_d_39_801" x="26" y="122" width="68" height="68" filterUnits="userSpaceOnUse" color-interpolation-filters="sRGB">
<feFlood flood-opacity="0" result="BackgroundImageFix"/>
<feColorMatrix in="SourceAlpha" type="matrix" values="0 0 0 0 0 0 0 0 0 0 0 0 0 0 0 0 0 0 127 0" result="hardAlpha"/>
<feOffset dy="4"/>
<feGaussianBlur stdDeviation="2"/>
<feComposite in2="hardAlpha" operator="out"/>
<feColorMatrix type="matrix" values="0 0 0 0 0 0 0 0 0 0 0 0 0 0 0 0 0 0 0.25 0"/>
<feBlend mode="normal" in2="BackgroundImageFix" result="effect1_dropShadow_39_801"/>
<feBlend mode="normal" in="SourceGraphic" in2="effect1_dropShadow_39_801" result="shape"/>
</filter>
<linearGradient id="paint0_linear_39_801" x1="90.4286" y1="382.571" x2="103.728" y2="244.201" gradientUnits="userSpaceOnUse">
<stop stop-color="#FAFAFA"/>
<stop offset="1" stop-color="#949494" stop-opacity="0"/>
</linearGradient>
<linearGradient id="paint1_linear_39_801" x1="91.2857" y1="195.714" x2="-58.7143" y2="17.8571" gradientUnits="userSpaceOnUse">
<stop stop-color="white" stop-opacity="0"/>
<stop offset="1" stop-color="#121212"/>
</linearGradient>
<linearGradient id="paint2_linear_39_801" x1="80.2857" y1="305.714" x2="89.152" y2="213.467" gradientUnits="userSpaceOnUse">
<stop stop-color="#FAFAFA"/>
<stop offset="1" stop-color="#949494" stop-opacity="0"/>
</linearGradient>
<linearGradient id="paint3_linear_39_801" x1="91" y1="192" x2="84" y2="188" gradientUnits="userSpaceOnUse">
<stop stop-color="#FAFAFA" stop-opacity="0.7"/>
<stop offset="1" stop-color="#949494" stop-opacity="0"/>
</linearGradient>
<linearGradient id="paint4_linear_39_801" x1="34.5" y1="189" x2="28.5" y2="192" gradientUnits="userSpaceOnUse">
<stop stop-color="#FAFAFA" stop-opacity="0"/>
<stop offset="1" stop-color="#FAFAFA"/>
</linearGradient>
<linearGradient id="paint5_linear_39_801" x1="90" y1="131.5" x2="102.5" y2="124" gradientUnits="userSpaceOnUse">
<stop stop-color="#FAFAFA" stop-opacity="0"/>
<stop offset="1" stop-color="#FAFAFA"/>
</linearGradient>
<linearGradient id="paint6_linear_39_801" x1="25.5" y1="133.5" x2="16.336" y2="128.335" gradientUnits="userSpaceOnUse">
<stop stop-color="#FAFAFA" stop-opacity="0"/>
<stop offset="1" stop-color="#FAFAFA"/>
</linearGradient>
<clipPath id="clip0_39_801">
<rect width="60" height="60" fill="white" transform="translate(30 122)"/>
</clipPath>
</defs>
</svg>
