<svg id="visual" viewBox="0 0 900 600" width="900" height="600" xmlns="http://www.w3.org/2000/svg" xmlns:xlink="http://www.w3.org/1999/xlink" version="1.1"><g stroke-width="1" stroke-linejoin="bevel"><path d="M408 287L472 205L381 202Z" fill="#401115" stroke="#401115"></path><path d="M472 205L374 110L381 202Z" fill="#401115" stroke="#401115"></path><path d="M492 124L374 110L472 205Z" fill="#1c0000" stroke="#1c0000"></path><path d="M408 287L516 336L472 205Z" fill="#a62929" stroke="#a62929"></path><path d="M472 205L585 218L492 124Z" fill="#882125" stroke="#882125"></path><path d="M313 111L288 222L381 202Z" fill="#401115" stroke="#401115"></path><path d="M381 202L288 222L408 287Z" fill="#791e22" stroke="#791e22"></path><path d="M516 336L585 218L472 205Z" fill="#270908" stroke="#270908"></path><path d="M374 110L313 111L381 202Z" fill="#5c171c" stroke="#5c171c"></path><path d="M288 222L294 338L408 287Z" fill="#4e1418" stroke="#4e1418"></path><path d="M408 287L424 437L516 336Z" fill="#1c0000" stroke="#1c0000"></path><path d="M294 338L424 437L408 287Z" fill="#a62929" stroke="#a62929"></path><path d="M424 437L536 406L516 336Z" fill="#5c171c" stroke="#5c171c"></path><path d="M516 336L633 306L585 218Z" fill="#972527" stroke="#972527"></path><path d="M313 111L218 205L288 222Z" fill="#972527" stroke="#972527"></path><path d="M288 222L218 205L294 338Z" fill="#972527" stroke="#972527"></path><path d="M598 373L633 306L516 336Z" fill="#882125" stroke="#882125"></path><path d="M536 406L598 373L516 336Z" fill="#a62929" stroke="#a62929"></path><path d="M510 0L432 0L492 124Z" fill="#791e22" stroke="#791e22"></path><path d="M492 124L432 0L374 110Z" fill="#401115" stroke="#401115"></path><path d="M374 110L331 0L313 111Z" fill="#972527" stroke="#972527"></path><path d="M189 385L296 431L294 338Z" fill="#5c171c" stroke="#5c171c"></path><path d="M294 338L296 431L424 437Z" fill="#791e22" stroke="#791e22"></path><path d="M578 0L510 0L492 124Z" fill="#1c0000" stroke="#1c0000"></path><path d="M630 70L492 124L585 218Z" fill="#882125" stroke="#882125"></path><path d="M432 0L331 0L374 110Z" fill="#6a1a1f" stroke="#6a1a1f"></path><path d="M313 111L182 134L218 205Z" fill="#270908" stroke="#270908"></path><path d="M730 128L630 70L585 218Z" fill="#a62929" stroke="#a62929"></path><path d="M185 0L182 134L313 111Z" fill="#330e10" stroke="#330e10"></path><path d="M218 205L168 335L294 338Z" fill="#330e10" stroke="#330e10"></path><path d="M361 509L502 499L424 437Z" fill="#6a1a1f" stroke="#6a1a1f"></path><path d="M424 437L502 499L536 406Z" fill="#882125" stroke="#882125"></path><path d="M536 406L618 492L598 373Z" fill="#6a1a1f" stroke="#6a1a1f"></path><path d="M71 288L168 335L218 205Z" fill="#330e10" stroke="#330e10"></path><path d="M630 70L578 0L492 124Z" fill="#972527" stroke="#972527"></path><path d="M168 335L189 385L294 338Z" fill="#1c0000" stroke="#1c0000"></path><path d="M337 515L361 509L296 431Z" fill="#5c171c" stroke="#5c171c"></path><path d="M296 431L361 509L424 437Z" fill="#270908" stroke="#270908"></path><path d="M169 490L337 515L296 431Z" fill="#5c171c" stroke="#5c171c"></path><path d="M361 509L420 600L502 499Z" fill="#972527" stroke="#972527"></path><path d="M68 72L134 164L182 134Z" fill="#270908" stroke="#270908"></path><path d="M182 134L134 164L218 205Z" fill="#330e10" stroke="#330e10"></path><path d="M770 285L734 184L633 306Z" fill="#6a1a1f" stroke="#6a1a1f"></path><path d="M633 306L734 184L585 218Z" fill="#4e1418" stroke="#4e1418"></path><path d="M630 70L672 0L578 0Z" fill="#882125" stroke="#882125"></path><path d="M735 370L633 306L598 373Z" fill="#270908" stroke="#270908"></path><path d="M735 370L730 333L633 306Z" fill="#4e1418" stroke="#4e1418"></path><path d="M502 499L618 492L536 406Z" fill="#330e10" stroke="#330e10"></path><path d="M512 600L618 492L502 499Z" fill="#6a1a1f" stroke="#6a1a1f"></path><path d="M734 184L730 128L585 218Z" fill="#6a1a1f" stroke="#6a1a1f"></path><path d="M331 0L185 0L313 111Z" fill="#6a1a1f" stroke="#6a1a1f"></path><path d="M675 474L735 370L598 373Z" fill="#6a1a1f" stroke="#6a1a1f"></path><path d="M730 333L770 285L633 306Z" fill="#882125" stroke="#882125"></path><path d="M730 128L672 0L630 70Z" fill="#4e1418" stroke="#4e1418"></path><path d="M618 492L675 474L598 373Z" fill="#6a1a1f" stroke="#6a1a1f"></path><path d="M807 373L770 285L730 333Z" fill="#330e10" stroke="#330e10"></path><path d="M734 184L790 160L730 128Z" fill="#882125" stroke="#882125"></path><path d="M168 335L81 371L189 385Z" fill="#330e10" stroke="#330e10"></path><path d="M189 385L169 490L296 431Z" fill="#401115" stroke="#401115"></path><path d="M134 164L71 288L218 205Z" fill="#270908" stroke="#270908"></path><path d="M0 208L71 288L134 164Z" fill="#401115" stroke="#401115"></path><path d="M120 489L169 490L189 385Z" fill="#1c0000" stroke="#1c0000"></path><path d="M322 600L361 509L337 515Z" fill="#270908" stroke="#270908"></path><path d="M322 600L420 600L361 509Z" fill="#972527" stroke="#972527"></path><path d="M618 492L706 600L675 474Z" fill="#972527" stroke="#972527"></path><path d="M71 288L81 371L168 335Z" fill="#4e1418" stroke="#4e1418"></path><path d="M770 285L790 160L734 184Z" fill="#401115" stroke="#401115"></path><path d="M730 128L828 0L672 0Z" fill="#791e22" stroke="#791e22"></path><path d="M420 600L512 600L502 499Z" fill="#5c171c" stroke="#5c171c"></path><path d="M226 600L322 600L337 515Z" fill="#270908" stroke="#270908"></path><path d="M185 0L68 72L182 134Z" fill="#401115" stroke="#401115"></path><path d="M81 371L120 489L189 385Z" fill="#5c171c" stroke="#5c171c"></path><path d="M169 490L226 600L337 515Z" fill="#791e22" stroke="#791e22"></path><path d="M830 519L807 373L735 370Z" fill="#a62929" stroke="#a62929"></path><path d="M735 370L807 373L730 333Z" fill="#5c171c" stroke="#5c171c"></path><path d="M770 285L900 208L790 160Z" fill="#4e1418" stroke="#4e1418"></path><path d="M830 519L735 370L675 474Z" fill="#1c0000" stroke="#1c0000"></path><path d="M512 600L622 600L618 492Z" fill="#a62929" stroke="#a62929"></path><path d="M101 600L226 600L169 490Z" fill="#270908" stroke="#270908"></path><path d="M900 208L822 94L790 160Z" fill="#4e1418" stroke="#4e1418"></path><path d="M790 160L822 94L730 128Z" fill="#a62929" stroke="#a62929"></path><path d="M185 0L70 0L68 72Z" fill="#791e22" stroke="#791e22"></path><path d="M0 69L0 208L68 72Z" fill="#882125" stroke="#882125"></path><path d="M68 72L0 208L134 164Z" fill="#1c0000" stroke="#1c0000"></path><path d="M71 288L0 329L81 371Z" fill="#882125" stroke="#882125"></path><path d="M81 371L0 393L120 489Z" fill="#882125" stroke="#882125"></path><path d="M0 208L0 329L71 288Z" fill="#972527" stroke="#972527"></path><path d="M0 329L0 393L81 371Z" fill="#a62929" stroke="#a62929"></path><path d="M120 489L101 600L169 490Z" fill="#270908" stroke="#270908"></path><path d="M70 0L0 69L68 72Z" fill="#791e22" stroke="#791e22"></path><path d="M622 600L706 600L618 492Z" fill="#5c171c" stroke="#5c171c"></path><path d="M900 64L828 0L822 94Z" fill="#972527" stroke="#972527"></path><path d="M822 94L828 0L730 128Z" fill="#972527" stroke="#972527"></path><path d="M900 274L770 285L807 373Z" fill="#401115" stroke="#401115"></path><path d="M900 274L900 208L770 285Z" fill="#1c0000" stroke="#1c0000"></path><path d="M900 389L900 274L807 373Z" fill="#270908" stroke="#270908"></path><path d="M70 0L0 0L0 69Z" fill="#4e1418" stroke="#4e1418"></path><path d="M0 507L101 600L120 489Z" fill="#1c0000" stroke="#1c0000"></path><path d="M765 600L830 519L675 474Z" fill="#972527" stroke="#972527"></path><path d="M706 600L765 600L675 474Z" fill="#6a1a1f" stroke="#6a1a1f"></path><path d="M830 519L900 389L807 373Z" fill="#1c0000" stroke="#1c0000"></path><path d="M900 208L900 64L822 94Z" fill="#4e1418" stroke="#4e1418"></path><path d="M0 393L0 507L120 489Z" fill="#a62929" stroke="#a62929"></path><path d="M900 64L900 0L828 0Z" fill="#270908" stroke="#270908"></path><path d="M900 600L900 522L830 519Z" fill="#972527" stroke="#972527"></path><path d="M830 519L900 522L900 389Z" fill="#6a1a1f" stroke="#6a1a1f"></path><path d="M0 507L0 600L101 600Z" fill="#1c0000" stroke="#1c0000"></path><path d="M765 600L900 600L830 519Z" fill="#6a1a1f" stroke="#6a1a1f"></path></g></svg>