<svg width="323" height="178" viewBox="0 0 323 178" fill="none" xmlns="http://www.w3.org/2000/svg">
<path d="M10 52.5H91C96.2467 52.5 100.5 56.7533 100.5 62V177.5H0.5V62L0.512695 61.5107C0.767337 56.4914 4.91739 52.5 10 52.5Z" stroke="#232323"/>
<path opacity="0.3" d="M42.8494 160.112V161.264H41.3134V164H40.0334V161.264H35.0574V159.984L40.2094 152.656H41.3134V160.112H42.8494ZM40.0334 160.112V154.656L36.2574 160.112H40.0334ZM51.036 152.864L51.02 154.064H46.428L45.756 157.44C46.316 156.848 47.084 156.544 48.06 156.544C49.116 156.544 49.98 156.896 50.652 157.584C51.308 158.272 51.644 159.168 51.644 160.256C51.644 161.408 51.276 162.368 50.556 163.104C49.82 163.856 48.876 164.224 47.724 164.224C46.636 164.224 45.772 163.936 45.1 163.328C44.428 162.736 44.092 161.936 44.06 160.944H45.436C45.484 161.584 45.724 162.096 46.156 162.48C46.572 162.88 47.1 163.072 47.74 163.072C48.444 163.072 49.02 162.816 49.5 162.304C49.964 161.792 50.204 161.168 50.204 160.4C50.204 159.616 49.964 158.976 49.516 158.48C49.052 157.984 48.46 157.728 47.724 157.728C46.78 157.728 46.06 158.096 45.548 158.832L44.38 158.752L45.436 152.864H51.036Z" fill="#FAFAFA"/>
<path opacity="0.3" d="M62.77 155.69L58.78 163.34H58.1L62.11 155.69H62.77ZM58.08 155.89C58.58 155.89 58.97 156.06 59.24 156.38C59.51 156.71 59.64 157.18 59.64 157.8C59.64 158.48 59.51 159 59.23 159.36C58.96 159.72 58.56 159.9 58.03 159.9C56.96 159.9 56.42 159.23 56.42 157.88C56.42 157.25 56.57 156.76 56.85 156.41C57.14 156.07 57.55 155.89 58.08 155.89ZM58.03 156.47C57.46 156.47 57.17 156.96 57.17 157.93C57.17 158.87 57.46 159.33 58.03 159.33C58.61 159.33 58.89 158.84 58.89 157.84C58.89 156.93 58.61 156.47 58.03 156.47ZM63.05 159.14C63.56 159.14 63.95 159.31 64.22 159.63C64.49 159.96 64.62 160.43 64.62 161.05C64.62 161.73 64.49 162.25 64.21 162.61C63.94 162.97 63.54 163.15 63.01 163.15C61.94 163.15 61.4 162.48 61.4 161.13C61.4 160.5 61.55 160.01 61.83 159.66C62.12 159.32 62.53 159.14 63.05 159.14ZM63.01 159.72C62.44 159.72 62.15 160.21 62.15 161.18C62.15 162.12 62.44 162.58 63.01 162.58C63.59 162.58 63.87 162.09 63.87 161.09C63.87 160.18 63.59 159.72 63.01 159.72Z" fill="#FAFAFA"/>
<path d="M111 10C111 4.47715 115.477 0 121 0H202C207.523 0 212 4.47715 212 10V178H111V10Z" fill="#232323"/>
<path d="M232 30.5H313C318.247 30.5 322.5 34.7533 322.5 40V177.5H222.5V40C222.5 34.7533 226.753 30.5 232 30.5Z" stroke="#232323"/>
<path opacity="0.3" d="M264.849 160.112V161.264H263.313V164H262.033V161.264H257.057V159.984L262.209 152.656H263.313V160.112H264.849ZM262.033 160.112V154.656L258.257 160.112H262.033ZM273.036 152.864L273.02 154.064H268.428L267.756 157.44C268.316 156.848 269.084 156.544 270.06 156.544C271.116 156.544 271.98 156.896 272.652 157.584C273.308 158.272 273.644 159.168 273.644 160.256C273.644 161.408 273.276 162.368 272.556 163.104C271.82 163.856 270.876 164.224 269.724 164.224C268.636 164.224 267.772 163.936 267.1 163.328C266.428 162.736 266.092 161.936 266.06 160.944H267.436C267.484 161.584 267.724 162.096 268.156 162.48C268.572 162.88 269.1 163.072 269.74 163.072C270.444 163.072 271.02 162.816 271.5 162.304C271.964 161.792 272.204 161.168 272.204 160.4C272.204 159.616 271.964 158.976 271.516 158.48C271.052 157.984 270.46 157.728 269.724 157.728C268.78 157.728 268.06 158.096 267.548 158.832L266.38 158.752L267.436 152.864H273.036Z" fill="#FAFAFA" fill-opacity="0.6"/>
<path opacity="0.3" d="M284.77 155.69L280.78 163.34H280.1L284.11 155.69H284.77ZM280.08 155.89C280.58 155.89 280.97 156.06 281.24 156.38C281.51 156.71 281.64 157.18 281.64 157.8C281.64 158.48 281.51 159 281.23 159.36C280.96 159.72 280.56 159.9 280.03 159.9C278.96 159.9 278.42 159.23 278.42 157.88C278.42 157.25 278.57 156.76 278.85 156.41C279.14 156.07 279.55 155.89 280.08 155.89ZM280.03 156.47C279.46 156.47 279.17 156.96 279.17 157.93C279.17 158.87 279.46 159.33 280.03 159.33C280.61 159.33 280.89 158.84 280.89 157.84C280.89 156.93 280.61 156.47 280.03 156.47ZM285.05 159.14C285.56 159.14 285.95 159.31 286.22 159.63C286.49 159.96 286.62 160.43 286.62 161.05C286.62 161.73 286.49 162.25 286.21 162.61C285.94 162.97 285.54 163.15 285.01 163.15C283.94 163.15 283.4 162.48 283.4 161.13C283.4 160.5 283.55 160.01 283.83 159.66C284.12 159.32 284.53 159.14 285.05 159.14ZM285.01 159.72C284.44 159.72 284.15 160.21 284.15 161.18C284.15 162.12 284.44 162.58 285.01 162.58C285.59 162.58 285.87 162.09 285.87 161.09C285.87 160.18 285.59 159.72 285.01 159.72Z" fill="#FAFAFA" fill-opacity="0.6"/>
</svg>
